<?xml version="1.0" encoding="UTF-8"?>
<svg width="1258px" height="1600px" viewBox="0 0 1258 1600" version="1.1" xmlns="http://www.w3.org/2000/svg" xmlns:xlink="http://www.w3.org/1999/xlink">
    <!-- Generator: Sketch 53 (72520) - https://sketchapp.com -->
    <title>A</title>
    <desc>Created with Sketch.</desc>
    <g id="Page-1" stroke="none" stroke-width="1" fill="none" fill-rule="evenodd">
        <g id="A" transform="translate(0.030143, 0.000000)" fill-rule="nonzero">
            <path d="M1255.96986,1576 C1261.96986,1588 1251.96986,1600 1237.96986,1600 L961.969857,1600 C955.969857,1600 945.969857,1596 943.969857,1588 L627.969857,696 L315.969857,1588 C313.969857,1596 303.969857,1600 295.969857,1600 L21.9698565,1600 C3.96985654,1600 -4.03014346,1588 1.96985654,1576 L607.969857,12 C613.969857,-4 641.969857,-4 647.969857,12 L1255.96986,1576 Z" fill="#FFE74C"></path>
            <path d="M1255.96986,1576 C1261.96986,1588 1251.96986,1600 1237.96986,1600 L961.969857,1600 C955.969857,1600 945.969857,1596 943.969857,1588 L627.969857,696 L372.256371,696 C354.256371,696 347.325386,684.833758 352.256371,672 L607.969857,12 C613.969857,-4 641.969857,-4 647.969857,12 L1255.96986,1576 Z" fill-opacity="0.15" fill="#272D2D"></path>
        </g>
    </g>
</svg>