<svg width="955" height="1024" viewBox="0 0 955 1024" fill="none" xmlns="http://www.w3.org/2000/svg">
<path fill-rule="evenodd" clip-rule="evenodd" d="M606.327 938.035C565.345 949.497 522.138 955.626 477.5 955.626C213.784 955.626 0 741.702 0 477.813C0 213.924 213.784 0 477.5 0C741.216 0 955 213.924 955 477.813C955 635.977 878.203 776.192 759.887 863.156L838.168 1023.76L837.683 1024H648.227L606.327 938.035ZM683.067 705.549C745.161 649.391 784.179 568.162 784.179 477.813C784.179 308.328 646.874 170.934 477.501 170.934C459.495 170.934 441.852 172.486 424.697 175.465L683.067 705.549ZM271.292 250.66C209.571 306.797 170.822 387.777 170.822 477.813C170.822 647.298 308.127 784.693 477.501 784.693C495.207 784.693 512.563 783.191 529.449 780.308L271.292 250.66Z" fill="#FFE74C"/>
</svg>
