<?xml version="1.0" encoding="UTF-8"?>
<svg width="1556px" height="1601px" viewBox="0 0 1556 1601" version="1.1" xmlns="http://www.w3.org/2000/svg" xmlns:xlink="http://www.w3.org/1999/xlink">
    <!-- Generator: Sketch 53 (72520) - https://sketchapp.com -->
    <title>Q</title>
    <desc>Created with Sketch.</desc>
    <g id="Page-1" stroke="none" stroke-width="1" fill="none" fill-rule="evenodd">
        <g id="Q" fill-rule="nonzero">
            <path d="M292,788 C292,1054 478,1300 766,1300 C836,1300 920,1278 990,1244 L330,584 C306,648 292,718 292,788 Z M1244,788 C1244,522 1076,282 766,282 C668,282 584,308 514,352 L1192,1030 C1224,962 1244,866 1244,788 Z M1548,1396 C1558,1402 1558,1414 1548,1422 L1376,1596 C1366,1602 1354,1602 1344,1596 L1200,1450 C1074,1532 924,1582 766,1582 C306,1582 0,1210 0,788 C0,370 292,0 766,0 C1222,0 1534,370 1534,788 C1534,944 1484,1122 1402,1248 L1548,1396 Z" fill="#FFE74C"></path>
            <path d="M292,788 C292,1054 478,1300 766,1300 C836,1300 920,1278 990,1244 L330,584 C306,648 292,718 292,788 Z M1244,788 C1244,522 1076,282 766,282 C668,282 584,308 514,352 L1192,1030 C1224,962 1244,866 1244,788 Z M1200,1450 C1074,1532 924,1582 766,1582 C306,1582 0,1210 0,788 C0,370 292,1.13686838e-13 766,1.13686838e-13 C1222,1.13686838e-13 1534,370 1534,788 C1534,944 1484,1122 1402,1248 C1362.72342,1300.49401 1331.83911,1337.98704 1309.34706,1360.47909 C1286.95022,1382.87593 1250.5012,1412.71623 1200,1450 Z" fill-opacity="0.15" fill="#272D2D"></path>
        </g>
    </g>
</svg>